<?xml version="1.0" standalone="no"?>
<!DOCTYPE svg PUBLIC "-//W3C//DTD SVG 20010904//EN"
 "http://www.w3.org/TR/2001/REC-SVG-20010904/DTD/svg10.dtd">
<svg version="1.0" xmlns="http://www.w3.org/2000/svg"
 width="1920.000000pt" height="1920.000000pt" viewBox="0 0 1920.000000 1920.000000"
 preserveAspectRatio="xMidYMid meet">

<g transform="translate(0.000000,1920.000000) scale(0.100000,-0.100000)"
fill="#000000" stroke="none">
<path d="M9120 14379 c-1666 -87 -3271 -621 -4655 -1549 -936 -628 -1754
-1426 -2407 -2350 -163 -230 -394 -596 -507 -803 l-43 -77 43 -77 c113 -207
344 -573 507 -803 653 -924 1471 -1722 2407 -2350 977 -654 2069 -1117 3210
-1359 1860 -394 3802 -206 5545 536 218 93 624 291 835 408 1480 818 2708
2027 3552 3494 46 79 83 147 83 151 0 4 -37 72 -83 151 -709 1233 -1693 2288
-2872 3079 -363 243 -682 427 -1090 626 -1126 552 -2319 858 -3595 924 -223
11 -702 11 -930 -1z m830 -970 c1452 -126 2722 -1098 3235 -2474 163 -437 237
-857 237 -1335 0 -478 -74 -898 -237 -1335 -387 -1039 -1211 -1863 -2250
-2250 -437 -163 -857 -237 -1335 -237 -478 0 -898 74 -1335 237 -1039 387
-1863 1211 -2250 2250 -163 437 -237 857 -237 1335 0 478 74 898 237 1335 569
1526 2050 2530 3670 2488 83 -2 202 -8 265 -14z m-3161 -232 c-14 -12 -82 -70
-151 -129 -705 -601 -1220 -1432 -1447 -2335 -209 -835 -178 -1726 90 -2536
260 -785 736 -1496 1357 -2025 69 -59 137 -117 151 -130 23 -19 12 -17 -84 17
-761 271 -1521 682 -2200 1189 -332 248 -579 465 -916 801 -444 445 -750 816
-1074 1306 -183 277 -173 258 -151 298 97 169 407 607 599 847 360 447 840
929 1297 1301 719 586 1558 1058 2475 1392 86 32 86 32 54 4z m5906 -90 c703
-275 1381 -653 2000 -1115 331 -248 578 -464 916 -801 443 -443 749 -816 1074
-1306 183 -277 173 -258 151 -297 -97 -170 -407 -608 -599 -848 -360 -447
-840 -929 -1297 -1301 -710 -579 -1593 -1077 -2445 -1380 -96 -34 -107 -36
-84 -17 14 13 82 71 151 130 705 601 1220 1432 1447 2335 183 730 183 1496 0
2226 -227 903 -742 1734 -1447 2335 -69 59 -137 117 -151 130 -23 19 -12 17
84 -17 61 -22 151 -55 200 -74z"/>
<path d="M9327 11865 c-249 -30 -494 -103 -722 -214 -465 -227 -822 -583
-1051 -1046 -508 -1031 -172 -2266 793 -2910 207 -139 522 -272 766 -324 309
-67 665 -67 974 0 244 52 559 185 766 324 350 233 609 527 793 900 508 1031
172 2266 -793 2910 -207 139 -522 272 -766 324 -230 50 -530 64 -760 36z m473
-719 c353 -47 647 -193 901 -446 251 -251 398 -547 445 -900 40 -304 -15 -631
-154 -907 -138 -273 -412 -547 -685 -685 -439 -221 -975 -221 -1414 0 -273
138 -547 412 -685 685 -221 439 -221 975 0 1414 138 273 412 547 685 685 275
138 603 194 907 154z"/>
</g>
</svg>
