<?xml version="1.0" encoding="UTF-8"?>
<svg version="1.1" xmlns="http://www.w3.org/2000/svg" width="192" height="192">
<path d="M0 0 C1.10988281 0.350625 2.21976562 0.70125 3.36328125 1.0625 C16.33060196 5.53506092 27.34120192 13.35762845 37 23 C37.75796875 23.74636719 38.5159375 24.49273437 39.296875 25.26171875 C48.98253745 35.36486665 55.83967158 47.67063406 60 61 C60.31839844 61.98097656 60.63679687 62.96195312 60.96484375 63.97265625 C67.19392488 87.13794875 63.61220496 112.49842048 52.16015625 133.3515625 C39.5249324 155.20987 19.38506297 170.98332745 -4.8125 178 C-21.94403841 182.4652872 -41.29909091 181.79574927 -58 176 C-59.10859375 175.649375 -60.2171875 175.29875 -61.359375 174.9375 C-82.86277808 167.52962908 -101.83272348 150.20923291 -112 130 C-114.38825796 124.79805079 -116.28735063 119.45742043 -118 114 C-118.34160156 112.91589844 -118.68320313 111.83179687 -119.03515625 110.71484375 C-125.25647956 86.90019686 -120.51895834 62.03717662 -108.6875 40.875 C-96.11777883 20.03429347 -77.92486245 6.72378878 -55 -1 C-53.61361328 -1.48339844 -53.61361328 -1.48339844 -52.19921875 -1.9765625 C-35.67970617 -6.76029145 -16.14340666 -5.54530579 0 0 Z " fill="#0463AB" transform="translate(125,8)"/>
<path d="M0 0 C1.10988281 0.350625 2.21976562 0.70125 3.36328125 1.0625 C16.33060196 5.53506092 27.34120192 13.35762845 37 23 C37.75796875 23.74636719 38.5159375 24.49273437 39.296875 25.26171875 C48.98253745 35.36486665 55.83967158 47.67063406 60 61 C60.31839844 61.98097656 60.63679687 62.96195312 60.96484375 63.97265625 C67.19392488 87.13794875 63.61220496 112.49842048 52.16015625 133.3515625 C39.5249324 155.20987 19.38506297 170.98332745 -4.8125 178 C-21.94403841 182.4652872 -41.29909091 181.79574927 -58 176 C-59.10859375 175.649375 -60.2171875 175.29875 -61.359375 174.9375 C-82.86277808 167.52962908 -101.83272348 150.20923291 -112 130 C-114.38825796 124.79805079 -116.28735063 119.45742043 -118 114 C-118.34160156 112.91589844 -118.68320313 111.83179687 -119.03515625 110.71484375 C-125.25647956 86.90019686 -120.51895834 62.03717662 -108.6875 40.875 C-96.11777883 20.03429347 -77.92486245 6.72378878 -55 -1 C-53.61361328 -1.48339844 -53.61361328 -1.48339844 -52.19921875 -1.9765625 C-35.67970617 -6.76029145 -16.14340666 -5.54530579 0 0 Z M-89.3125 34.3125 C-104.93363411 53.03149615 -110.5631286 74.0702698 -109 98 C-107.30272552 113.26017958 -100.68857434 127.22320866 -91 139 C-90.40832031 139.76570312 -89.81664063 140.53140625 -89.20703125 141.3203125 C-80.61473335 151.83625918 -68.59465196 159.23606545 -56 164 C-54.90945312 164.4125 -53.81890625 164.825 -52.6953125 165.25 C-33.0235259 171.55899169 -11.38251159 169.21659124 7.02075195 160.24462891 C26.74416728 150.00985703 41.04798733 133.05754562 48 112 C48.29777344 111.16082031 48.59554687 110.32164063 48.90234375 109.45703125 C55.04838141 89.37619853 50.6517896 67.32361006 41.5078125 49.01171875 C31.43174251 30.42643175 14.72947064 17.57649021 -5.1875 10.9375 C-35.99932745 2.22980963 -67.37123455 11.05049818 -89.3125 34.3125 Z " fill="#057CBD" transform="translate(125,8)"/>
<path d="M0 0 C2.24673736 2.02206362 4.44292911 4.03469288 6.5 6.25 C6.95890625 5.84007813 7.4178125 5.43015625 7.890625 5.0078125 C8.50421875 4.46898438 9.1178125 3.93015625 9.75 3.375 C10.35328125 2.84132813 10.9565625 2.30765625 11.578125 1.7578125 C16.38385255 -2.01253473 20.43850619 -2.23899256 26.44921875 -2.12890625 C30.94682164 -1.57030512 34.34251162 -0.02161446 37.5 3.25 C43.35916643 12.63276651 40.64091873 25.85941354 39.07421875 36.29296875 C38.30390621 41.60131301 37.74818072 46.92623817 37.19775391 52.26123047 C36.83204319 55.6967645 36.34031 58.88876001 35.5 62.25 C29.23 62.25 22.96 62.25 16.5 62.25 C16.99106476 53.98374323 17.63393265 45.79047857 18.5625 37.5625 C19.99230782 26.89625242 19.99230782 26.89625242 19.5 16.25 C16.25173326 14.08448884 15.26905843 13.69843047 11.5 14.25 C6.50654933 18.41120889 6.18895258 22.16714423 5.5625 28.36328125 C5.47750244 29.16984665 5.39250488 29.97641205 5.30493164 30.80741882 C5.03294941 33.39207732 4.76609199 35.97722895 4.5 38.5625 C4.23338224 41.13699767 3.96561473 43.71135827 3.69506836 46.28544617 C3.52679657 47.887906 3.36084233 49.49061135 3.19750977 51.09358215 C2.80114611 54.88240588 2.24892693 58.50536536 1.5 62.25 C-4.77 62.25 -11.04 62.25 -17.5 62.25 C-17.19080896 58.04139969 -16.87777549 53.83314517 -16.5625 49.625 C-16.47548828 48.43519531 -16.38847656 47.24539062 -16.29882812 46.01953125 C-16.21181641 44.86582031 -16.12480469 43.71210937 -16.03515625 42.5234375 C-15.956604 41.46560059 -15.87805176 40.40776367 -15.79711914 39.31787109 C-15.5010893 36.26124742 -15.01228108 33.27671213 -14.5 30.25 C-14.36294843 27.83578396 -14.28086689 25.41790601 -14.25 23 C-14.21132812 21.16695312 -14.21132812 21.16695312 -14.171875 19.296875 C-14.28015625 18.29140625 -14.3884375 17.2859375 -14.5 16.25 C-17.30643274 13.97842803 -17.30643274 13.97842803 -20.4375 14.25 C-23.74259661 15.32921522 -24.80060429 16.34065468 -26.61450195 19.24755859 C-28.47234687 23.44883899 -28.67696669 28.03455666 -29.125 32.5625 C-29.24270752 33.61888672 -29.36041504 34.67527344 -29.48168945 35.76367188 C-29.7193857 37.90374821 -29.95064789 40.0445495 -30.17529297 42.18603516 C-30.55153882 45.73632497 -30.96903041 49.28055423 -31.39672852 52.82495117 C-31.77330159 55.9655896 -32.13529902 59.10796082 -32.5 62.25 C-38.77 62.25 -45.04 62.25 -51.5 62.25 C-51.60266587 55.46420245 -51.2750655 48.94871983 -50.44140625 42.21875 C-50.3327977 41.30218628 -50.22418915 40.38562256 -50.11228943 39.44128418 C-49.76783328 36.54350345 -49.41546197 33.64675574 -49.0625 30.75 C-48.71483808 27.8530593 -48.36882827 24.95592629 -48.02342224 22.05871582 C-47.80917506 20.26644002 -47.59335809 18.47435085 -47.37562561 16.68249512 C-46.67428572 10.87802051 -46.06626651 5.06925748 -45.5 -0.75 C-39.89 -0.75 -34.28 -0.75 -28.5 -0.75 C-28.17 1.89 -27.84 4.53 -27.5 7.25 C-27.005 6.5075 -26.51 5.765 -26 5 C-19.29349821 -2.37715197 -9.0645343 -4.53226715 0 0 Z " fill="#FAFCFD" transform="translate(101.5,63.75)"/>
</svg>
