<?xml version="1.0" encoding="UTF-8"?>
<svg version="1.1" xmlns="http://www.w3.org/2000/svg" width="1356" height="173">
<path d="M0 0 C2.68051624 2.79601425 4.90196793 5.74874501 7 9 C7.78375 7.948125 8.5675 6.89625 9.375 5.8125 C14.51242259 -0.21785557 22.04724597 -3.59062602 29.8828125 -4.23828125 C37.90249986 -4.42186445 45.17803458 -3.9272875 51.62109375 1.3203125 C57.37501628 7.5693797 58.50883788 15.11286978 58.37109375 23.20703125 C58.36291122 24.10243118 58.3547287 24.99783112 58.34629822 25.92036438 C58.11789859 37.32712376 56.80002304 48.64878352 55.49145508 59.97290039 C55.05563679 63.74693298 54.63688445 67.52258394 54.22070312 71.29882812 C53.95148275 73.7032329 53.68133652 76.10753423 53.41015625 78.51171875 C53.28407486 79.6385759 53.15799347 80.76543304 53.02809143 81.92643738 C52.90804245 82.95964615 52.78799347 83.99285492 52.66430664 85.05737305 C52.50775352 86.4213044 52.50775352 86.4213044 52.34803772 87.81278992 C52 90 52 90 51 92 C41.43 92 31.86 92 22 92 C22.47043689 83.95800525 23.05839512 75.97233416 23.97265625 67.96875 C24.06050385 67.19611816 24.14835144 66.42348633 24.23886108 65.62744141 C24.60201221 62.45615881 24.96912875 59.28541225 25.34594727 56.11572266 C26.31019347 47.95774741 27.1877929 39.81202346 27.37109375 31.59375 C27.40001709 30.41490234 27.42894043 29.23605469 27.45874023 28.02148438 C27.23034632 24.91863449 27.23034632 24.91863449 25.22290039 22.61914062 C22.49361978 20.63115721 20.3094626 20.43265938 16.96484375 20.61328125 C13.78872187 21.23840265 12.15906125 22.65043334 10 25 C8.21368977 28.73232638 7.5809982 32.16166455 7.13037109 36.2590332 C6.92037979 38.12039665 6.92037979 38.12039665 6.70614624 40.0193634 C6.56175725 41.36315295 6.41752464 42.7069593 6.2734375 44.05078125 C6.11997441 45.43375935 5.96588189 46.81666773 5.81118774 48.19950867 C5.40708845 51.82705723 5.01151393 55.4554859 4.61773682 59.08416748 C4.21386668 62.79170954 3.80197847 66.49836014 3.390625 70.20507812 C2.58508841 77.46914675 1.79290863 84.73449763 1 92 C-8.9 92 -18.8 92 -29 92 C-28.09549319 81.52279612 -27.13860848 71.06480698 -25.94140625 60.6171875 C-25.75418899 58.96444169 -25.56701476 57.31169101 -25.37988281 55.65893555 C-25.09941098 53.18530121 -24.81546327 50.71232407 -24.52038574 48.24038696 C-22.87463069 36.09886541 -22.87463069 36.09886541 -24 24 C-25.27246641 22.24572207 -25.27246641 22.24572207 -27 21 C-30.58962903 20.60115233 -33.25198712 20.75646092 -36.6875 21.875 C-45.02634022 29.53771804 -44.51328658 44.12040528 -45.625 54.625 C-45.82940831 56.46759493 -46.0351289 58.31004476 -46.2421875 60.15234375 C-46.64392652 63.73541505 -47.0392969 67.31910273 -47.43066406 70.90332031 C-48.20739121 77.94598053 -49.10191472 84.97186474 -50 92 C-59.57 92 -69.14 92 -79 92 C-79 85.55163664 -78.88673547 79.50304765 -78.17382812 73.15380859 C-78.08604599 72.3330484 -77.99826385 71.51228821 -77.90782166 70.66665649 C-77.62065784 67.99334615 -77.32603126 65.32091762 -77.03125 62.6484375 C-76.8290031 60.77947934 -76.62722841 58.91047003 -76.42590332 57.04141235 C-75.89795013 52.15180382 -75.36363538 47.26291126 -74.82794189 42.37414551 C-74.28115112 37.37354902 -73.74044998 32.37229446 -73.19921875 27.37109375 C-72.13873324 17.58007737 -71.07095567 7.78987668 -70 -2 C-61.09 -2 -52.18 -2 -43 -2 C-43 1.63 -43 5.26 -43 9 C-42.21625 7.948125 -41.4325 6.89625 -40.625 5.8125 C-31.20427915 -5.21936551 -12.17126829 -7.98150296 0 0 Z " fill="#FFFFFF" transform="translate(79,43)"/>
<path d="M0 0 C3.49612017 2.95227925 6.20913076 6.38220654 9 10 C9.4125 9.46890625 9.825 8.9378125 10.25 8.390625 C15.56580334 1.88825842 20.64347479 -1.66545045 29 -3 C37.79363473 -3.63864386 45.92424842 -3.45552851 52.875 2.4375 C53.57625 3.283125 54.2775 4.12875 55 5 C55.556875 5.598125 56.11375 6.19625 56.6875 6.8125 C64.83737834 20.39563057 59.16864471 42.74320212 57.49145508 57.4309082 C57.05916715 61.21668755 56.63886322 65.00365203 56.22070312 68.79101562 C55.9512017 71.20840934 55.68104344 73.62572993 55.41015625 76.04296875 C55.28407486 77.17002731 55.15799347 78.29708588 55.02809143 79.45829773 C54.90804245 80.50741837 54.78799347 81.556539 54.66430664 82.63745117 C54.50775352 84.01401131 54.50775352 84.01401131 54.34803772 85.41838074 C54.00509444 87.9622113 53.50339937 90.48300316 53 93 C43.43 93 33.86 93 24 93 C24 82.87811791 24 82.87811791 24.45898438 78.93017578 C24.55908813 78.04540558 24.65919189 77.16063538 24.7623291 76.24905396 C24.871698 75.32381927 24.98106689 74.39858459 25.09375 73.4453125 C25.32164629 71.428389 25.54950986 69.4114618 25.77734375 67.39453125 C26.13771348 64.25906947 26.50013292 61.12385406 26.86376953 57.98876953 C27.21639309 54.93317848 27.56156193 51.87680737 27.90625 48.8203125 C28.0156189 47.89912628 28.12498779 46.97794006 28.2376709 46.02883911 C30.08527639 34.11931951 30.08527639 34.11931951 27 23 C23.25650712 21.12825356 18.6565524 21.55228313 14.6875 22.625 C9.44148824 26.8995281 9.23211062 33.88496719 8.5625 40.125 C8.44471191 41.13457764 8.32692383 42.14415527 8.20556641 43.18432617 C7.78961335 46.78809868 7.393567 50.39371397 7 54 C6.83169772 55.53175529 6.66323301 57.06349274 6.49462891 58.59521484 C6.40670578 59.39451416 6.31878265 60.19381348 6.22819519 61.01733398 C6.04752399 62.65847225 5.86662622 64.29958559 5.6855011 65.94067383 C5.23664491 70.01010156 4.79217224 74.07989225 4.35766602 78.15087891 C4.19421917 79.65918467 4.03072835 81.16748567 3.8671875 82.67578125 C3.79438065 83.37164841 3.72157379 84.06751556 3.64656067 84.7844696 C3.32936706 87.68383549 2.92628192 90.22115424 2 93 C-7.57 93 -17.14 93 -27 93 C-26.54956918 84.65991784 -26.00178419 76.38499029 -25.02734375 68.08984375 C-24.93949615 67.34014313 -24.85164856 66.5904425 -24.76113892 65.81802368 C-24.39866928 62.75571261 -24.03058905 59.69415926 -23.65405273 56.63354492 C-20.61154874 39.72697882 -20.61154874 39.72697882 -23.27709961 23.61694336 C-25.08426383 21.60476867 -25.08426383 21.60476867 -28.875 21.5 C-33.03884583 21.73684261 -35.16167114 22.8372907 -38 26 C-40.78593046 31.49447396 -41.74105061 36.5391629 -42.4375 42.625 C-42.55456299 43.57834229 -42.67162598 44.53168457 -42.79223633 45.51391602 C-44.69502751 61.32237856 -46.32744046 77.16587036 -48 93 C-57.9 93 -67.8 93 -78 93 C-76.64629789 77.56909757 -75.09279409 62.17229559 -73.39550781 46.77563477 C-72.99853614 43.17421957 -72.6044904 39.57249337 -72.2109375 35.97070312 C-70.86054749 23.64046198 -69.47145863 11.31639167 -68 -1 C-59.42 -1 -50.84 -1 -42 -1 C-41.505 4.445 -41.505 4.445 -41 10 C-40.030625 8.7625 -39.06125 7.525 -38.0625 6.25 C-29.01119788 -4.14427987 -12.11569532 -6.25728298 0 0 Z " fill="#FFFFFF" transform="translate(1063,42)"/>
<path d="M0 0 C7.9398373 6.60967457 11.23540977 15.0364427 13 25 C14.26790613 44.20685687 13.36457598 65.59128141 0.66015625 81.1875 C-5.64314524 88.0692221 -11.47545435 92.69818581 -21.00390625 93.3125 C-36.23670849 93.91443462 -36.23670849 93.91443462 -42 89 C-43.84740891 87.08243633 -45.39656234 85.13791688 -47 83 C-47.33 83 -47.66 83 -48 83 C-48.09062965 83.86110634 -48.09062965 83.86110634 -48.18309021 84.73960876 C-48.81055101 90.69310386 -49.44411769 96.64592622 -50.08129883 102.59838867 C-50.31855735 104.82250439 -50.55423734 107.04678908 -50.78833008 109.27124023 C-51.12430522 112.46122833 -51.46587877 115.65057362 -51.80859375 118.83984375 C-51.91280136 119.84087631 -52.01700897 120.84190887 -52.12437439 121.87327576 C-52.22440262 122.79415482 -52.32443085 123.71503387 -52.42749023 124.66381836 C-52.51409409 125.47878281 -52.60069794 126.29374725 -52.68992615 127.13340759 C-53 129 -53 129 -54 130 C-56.14558827 130.08775605 -58.29404421 130.10695219 -60.44140625 130.09765625 C-61.74658203 130.09443359 -63.05175781 130.09121094 -64.39648438 130.08789062 C-65.7851569 130.07953401 -67.17382877 130.07106905 -68.5625 130.0625 C-69.95507656 130.05748666 -71.34765481 130.05292347 -72.74023438 130.04882812 C-76.16020078 130.03699433 -79.5800723 130.01967209 -83 130 C-82.27269307 117.66627756 -80.91722416 105.4143658 -79.56640625 93.13671875 C-79.32579712 90.93303141 -79.08539888 88.72932104 -78.84519958 86.52558899 C-78.34327984 81.92549553 -77.83968818 77.32558953 -77.3347168 72.72583008 C-76.69257811 66.87651935 -76.05329563 61.02690131 -75.41511631 55.1771574 C-74.79985631 49.538571 -74.18319681 43.9001379 -73.56640625 38.26171875 C-73.45144869 37.20986578 -73.33649113 36.15801281 -73.21805 35.07428551 C-71.86559021 22.7094103 -70.47174569 10.35128016 -69 -2 C-59.76 -2 -50.52 -2 -41 -2 C-41 1.63 -41 5.26 -41 9 C-40.21625 7.948125 -39.4325 6.89625 -38.625 5.8125 C-29.25864004 -5.18182253 -12.17974551 -7.47347569 0 0 Z M-37 22 C-44.31991681 34.23532606 -47.26255348 49.42000189 -44.50390625 63.5390625 C-43.03298575 67.97675486 -41.10147373 70.76283251 -37 73 C-32.84921757 73.60375017 -30.61041864 73.28725583 -26.8125 71.5 C-18.62130834 64.21894075 -17.63573027 52.19265955 -16.82714844 41.77246094 C-16.39129397 33.57180415 -15.97484775 25.6214711 -21.6875 19.0625 C-27.59928236 16.34627567 -32.77161416 17.20021066 -37 22 Z " fill="#FFFFFF" transform="translate(641,43)"/>
<path d="M0 0 C9.9 0 19.8 0 30 0 C28.35 16.5 26.7 33 25 50 C27.31 47.69 29.62 45.38 32 43 C40.58691228 38.55849365 50.35977147 37.49165128 59.75 40 C65.73717614 42.25728364 69.47161311 47.08217048 72.375 52.625 C75.35318518 63.9421037 73.79931766 75.38347183 72.46875 86.85546875 C72.31127624 88.25216281 72.15434424 89.64891806 71.9979248 91.04573059 C71.58901413 94.68435148 71.17285351 98.32210594 70.75506592 101.9597168 C70.32833672 105.68683231 69.90855678 109.4147303 69.48828125 113.14257812 C68.66627673 120.42926354 67.83286958 127.71451581 67 135 C57.1 135 47.2 135 37 135 C37.433125 130.89433594 37.86625 126.78867188 38.3125 122.55859375 C38.65723483 119.27121854 39.00124106 115.98376888 39.34475708 112.69626617 C39.70679538 109.23342569 40.07009611 105.77072864 40.43652344 102.30834961 C40.85753048 98.32967843 41.27265468 94.35041215 41.6875 90.37109375 C41.88436401 88.52226845 41.88436401 88.52226845 42.08520508 86.63609314 C43.84330048 75.26497453 43.84330048 75.26497453 40 65 C38.14209924 63.14209924 35.57527841 63.82050293 33.10546875 63.76953125 C30.61180842 64.04249221 29.14567764 64.70239458 27 66 C23.49441801 70.79053867 22.23373233 76.38811997 21.5 82.1875 C21.38672363 82.99832031 21.27344727 83.80914062 21.15673828 84.64453125 C19.64778944 95.8985242 18.52156295 107.21055223 17.35742188 118.50463867 C17.2748111 119.29807175 17.19220032 120.09150482 17.10708618 120.90898132 C16.95105617 122.41125401 16.79742266 123.9137782 16.64657593 125.4165802 C16.30233235 128.72277029 15.80915997 131.76336013 15 135 C5.43 135 -4.14 135 -14 135 C-13.31119788 120.6982395 -11.87350857 106.53490407 -10.3125 92.3046875 C-10.04695281 89.85714221 -9.78174076 87.40956054 -9.5168457 84.96194458 C-8.96459505 79.86693021 -8.40967431 74.7722169 -7.85253906 69.67773438 C-7.13936563 63.1561959 -6.43088896 56.63415844 -5.72413635 50.11192131 C-5.04685669 43.86350268 -4.36726979 37.61533563 -3.6875 31.3671875 C-3.55880524 30.18250759 -3.43011047 28.99782768 -3.29751587 27.77724838 C-2.9326888 24.42281045 -2.56622109 21.06855602 -2.19921875 17.71435547 C-2.09217621 16.72829819 -1.98513367 15.74224091 -1.87484741 14.7263031 C-1.77394806 13.80727707 -1.67304871 12.88825104 -1.5690918 11.94137573 C-1.48282028 11.15135603 -1.39654877 10.36133633 -1.30766296 9.54737663 C-0.92250748 6.35838027 -0.45426958 3.17988706 0 0 Z " fill="#FFFFFF" transform="translate(693,0)"/>
<path d="M0 0 C8.73205387 6.41087499 13.99693572 14.74317926 15.80859375 25.43359375 C17.89464828 44.00205442 13.88760455 62.53743724 2.1875 77.375 C-6.80073854 86.67904151 -18.52033721 91.28300988 -31.22387695 91.54248047 C-43.03305789 91.62764033 -52.61296058 90.72457408 -62.09375 83.01171875 C-71.03981648 74.16374511 -73.97762219 63.03148454 -74.125 50.75 C-74.13222063 35.16427683 -70.23172838 21.03297276 -59.875 9.25 C-59.3284375 8.60933594 -58.781875 7.96867187 -58.21875 7.30859375 C-44.41454647 -7.76533605 -17.17478758 -10.72349008 0 0 Z M-35.875 19.25 C-43.25121052 29.65170704 -44.83638908 45.66244867 -43.58984375 58.09375 C-42.62523316 62.95733282 -41.23325477 67.54229827 -37.0625 70.5625 C-32.66609551 71.94422712 -29.85768166 71.76099446 -25.75 69.625 C-18.56550474 63.68998218 -16.14836984 55.17087569 -14.875 46.25 C-14.56575796 42.39304546 -14.46187065 38.55602037 -14.4375 34.6875 C-14.42750977 33.74777344 -14.41751953 32.80804688 -14.40722656 31.83984375 C-14.48478859 25.67033816 -15.2882964 21.12411511 -19.5625 16.375 C-25.68462344 13.39666968 -31.0309943 14.84635845 -35.875 19.25 Z " fill="#FFFFFF" transform="translate(521.875,44.75)"/>
<path d="M0 0 C4.66229503 4.4158301 6.58424441 9.6348612 6.9765625 15.94873047 C7.25573964 30.32567785 5.55900726 44.53210246 3.99206543 58.80224609 C3.62314659 62.18122134 3.26512386 65.56135189 2.90625 68.94140625 C2.20676857 75.52215969 1.48975424 82.10065938 0.7734375 88.6796875 C-8.1365625 88.6796875 -17.0465625 88.6796875 -26.2265625 88.6796875 C-26.2265625 85.3796875 -26.2265625 82.0796875 -26.2265625 78.6796875 C-27.3403125 79.7521875 -28.4540625 80.8246875 -29.6015625 81.9296875 C-37.99385802 89.1251687 -46.3584251 90.59228102 -57.1484375 90.12890625 C-63.94150422 89.57012173 -69.46261652 86.86551642 -74.1640625 81.9296875 C-79.41534273 73.6549429 -80.23752492 65.63837589 -78.5390625 56.1171875 C-76.41820671 47.70689732 -71.2647799 41.58728807 -64.2265625 36.6796875 C-53.54172797 30.63347874 -43.20933788 29.35443167 -31.1015625 29.5546875 C-29.52375 29.56822266 -29.52375 29.56822266 -27.9140625 29.58203125 C-25.35131372 29.60532897 -22.78906738 29.63803638 -20.2265625 29.6796875 C-20.49632741 28.07485002 -20.78033758 26.4724029 -21.0703125 24.87109375 C-21.22693359 23.97849854 -21.38355469 23.08590332 -21.54492188 22.16625977 C-22.51468552 18.628637 -24.37362803 16.89071172 -27.2265625 14.6796875 C-32.91783535 11.83405107 -41.16098838 13.11481621 -47.0546875 14.7265625 C-50.48274895 15.96649962 -53.85219527 17.30154247 -57.2265625 18.6796875 C-59.2065625 19.3396875 -61.1865625 19.9996875 -63.2265625 20.6796875 C-62.8965625 13.4196875 -62.5665625 6.1596875 -62.2265625 -1.3203125 C-43.31448643 -7.48729383 -17.49086538 -13.06938268 0 0 Z M-49.2265625 51.6796875 C-51.4819662 55.63288586 -52.2265625 58.87391429 -52.2265625 63.4296875 C-51.42658832 66.73204594 -51.42658832 66.73204594 -49.2890625 69.1171875 C-44.89040303 71.36140151 -41.0703804 71.44941137 -36.2265625 70.6796875 C-30.16678832 67.64980041 -26.37437244 63.05319177 -23.8203125 56.79296875 C-22.62103753 52.52449666 -22.45785226 48.09014397 -22.2265625 43.6796875 C-32.06864333 43.10325327 -42.35112386 43.94481903 -49.2265625 51.6796875 Z " fill="#FFFFFF" transform="translate(1226.2265625,46.3203125)"/>
<path d="M0 0 C5.09157422 4.52807984 8.37575538 9.06278156 9 16 C9.70334103 28.20833967 7.9333729 40.33266408 6.5625 52.4375 C6.10179117 56.56079591 5.64520388 60.68453173 5.19140625 64.80859375 C5.02918076 66.27732437 5.02918076 66.27732437 4.86367798 67.77572632 C4.05848219 75.17854082 3.45705276 82.56632578 3 90 C-5.91 90 -14.82 90 -24 90 C-24.495 85.545 -24.495 85.545 -25 81 C-25.94875 81.9075 -26.8975 82.815 -27.875 83.75 C-36.66590211 91.11063629 -46.01056562 92.04322426 -57.09716797 91.21875 C-64.48945329 90.36893121 -68.87580895 86.70059191 -73.58984375 81.1953125 C-78.20279075 74.01393794 -77.89761518 65.37814808 -76.53515625 57.21484375 C-74.03175441 47.63081422 -68.69629065 41.52547021 -60.21484375 36.5390625 C-47.2112154 30.31375318 -33.14233608 30.22684057 -19 30 C-19.13792969 28.73929688 -19.27585937 27.47859375 -19.41796875 26.1796875 C-19.4955542 25.47054199 -19.57313965 24.76139648 -19.65307617 24.03076172 C-20.14460762 21.15352135 -21.19451401 19.27357495 -23 17 C-28.28894846 13.54698537 -34.97127074 14.47876612 -41 15 C-47.38704577 16.50066006 -53.21495513 18.95523954 -59 22 C-59.66 22 -60.32 22 -61 22 C-60.67 14.74 -60.34 7.48 -60 0 C-42.37437638 -5.74748596 -16.66810052 -11.88569193 0 0 Z M-45 51 C-48.41761442 54.78708625 -49.90582844 57.27352135 -50.1875 62.4375 C-50.01398493 65.7342863 -49.86393622 67.35124853 -48 70 C-43.52323357 72.98451096 -39.24751493 72.59476855 -34 72 C-27.89227798 69.17235092 -24.42586321 64.20819221 -21.75 58.1875 C-20.72344323 53.82463371 -20.33519438 49.46337778 -20 45 C-29.27446638 44.65148143 -37.52864371 44.91866349 -45 51 Z " fill="#FFFFFF" transform="translate(868,45)"/>
<path d="M0 0 C3.957999 3.57558364 7.33606071 7.98430959 7.77832031 13.45362854 C8.08376746 30.28685169 6.58577799 46.69514536 4.6171875 63.3984375 C4.32694824 65.94322544 4.03787937 68.48814714 3.75 71.03320312 C3.05461619 77.17775838 2.33551008 83.31885183 1.6171875 89.4609375 C-7.2928125 89.4609375 -16.2028125 89.4609375 -25.3828125 89.4609375 C-25.3828125 86.4909375 -25.3828125 83.5209375 -25.3828125 80.4609375 C-26.4965625 81.3684375 -27.6103125 82.2759375 -28.7578125 83.2109375 C-38.44180758 90.3305297 -47.64910577 91.47161392 -59.3828125 90.4609375 C-65.70549614 89.22306269 -70.87357217 85.97543249 -74.640625 80.69921875 C-78.87463374 72.9269999 -78.60226537 62.95208326 -76.72265625 54.48828125 C-73.70962428 46.04918304 -68.56575129 40.3357167 -60.6953125 36.1484375 C-46.9742394 29.96215516 -34.19264582 30.09389155 -19.3828125 30.4609375 C-19.66697086 28.68086286 -19.96201828 26.90252393 -20.26171875 25.125 C-20.50643921 23.6392749 -20.50643921 23.6392749 -20.75610352 22.12353516 C-21.52685614 18.84896247 -22.58298986 17.32748592 -25.3828125 15.4609375 C-34.70943478 12.35206341 -45.02487823 14.47965404 -53.70703125 18.55078125 C-55.60527121 19.50842116 -57.49482923 20.48323188 -59.3828125 21.4609375 C-60.0428125 21.4609375 -60.7028125 21.4609375 -61.3828125 21.4609375 C-61.43710528 18.75233085 -61.47662461 16.04482849 -61.5078125 13.3359375 C-61.52457031 12.57539062 -61.54132813 11.81484375 -61.55859375 11.03125 C-61.63617092 2.03229802 -61.63617092 2.03229802 -59.3828125 -1.5390625 C-55.95841285 -3.08146073 -52.4378614 -3.7357984 -48.7578125 -4.4140625 C-47.71761963 -4.61966797 -46.67742676 -4.82527344 -45.60571289 -5.03710938 C-30.93900847 -7.76200902 -12.82522796 -9.08224298 0 0 Z M-47.3828125 51.4609375 C-50.26985696 55.59903455 -50.99884734 59.38141347 -50.78125 64.3359375 C-50.46067114 66.74185426 -50.46067114 66.74185426 -48.5078125 69.5234375 C-44.06436402 72.27837556 -40.4775213 72.29809622 -35.3828125 71.4609375 C-29.9572305 69.77785715 -27.10977068 66.38806538 -24.3828125 61.53515625 C-21.59963831 55.76224417 -21.16272942 50.73330539 -21.3828125 44.4609375 C-30.8421012 43.91753155 -39.93754342 45.10521999 -47.3828125 51.4609375 Z " fill="#FFFFFF" transform="translate(239.3828125,45.5390625)"/>
<path d="M0 0 C-0.51648735 7.78808563 -1.44876534 15.34925042 -3 23 C-3.75023437 22.7834375 -4.50046875 22.566875 -5.2734375 22.34375 C-15.20686757 19.64145668 -23.38701416 18.06582704 -32.734375 23.25390625 C-38.12317304 27.40699715 -41.44688332 34.10493909 -42.75390625 40.734375 C-43.60532304 48.57281527 -44.1745004 56.0904821 -40 63 C-36.38617889 67.279525 -33.1434467 69.61762181 -27.52734375 70.30078125 C-20.31702416 70.33340713 -13.9065719 69.02496349 -7 67 C-6.85284308 74.3905476 -7.29223008 81.64424835 -8 89 C-9.37291868 89.48509793 -10.74846703 89.96275513 -12.125 90.4375 C-12.89070313 90.70433594 -13.65640625 90.97117187 -14.4453125 91.24609375 C-20.84448825 93.13453552 -27.1298773 93.21421555 -33.75 93.25 C-34.6884375 93.270625 -35.626875 93.29125 -36.59375 93.3125 C-48.08298042 93.37597641 -56.4254665 90.34625109 -64.6875 82.37109375 C-72.89124031 73.53156357 -75.55046276 61.61978353 -75.25 49.7890625 C-73.74923766 33.04618264 -68.53831718 18.82889111 -56.1875 7.25 C-39.55169837 -6.54398523 -19.59249339 -5.69963444 0 0 Z " fill="#FFFFFF" transform="translate(348,43)"/>
<path d="M0 0 C0.28994872 9.13338455 -0.8258212 17.96301675 -2 27 C-2.92941406 26.96519531 -3.85882812 26.93039063 -4.81640625 26.89453125 C-14.3878399 26.51899305 -14.3878399 26.51899305 -23 30 C-29.61134442 36.46108659 -31.35514474 44.35695888 -32.5 53.25 C-32.62036621 54.13026855 -32.74073242 55.01053711 -32.86474609 55.91748047 C-34.09880944 65.20408654 -35.0632702 74.52387744 -35.99804688 83.84472656 C-36.11470703 84.99166992 -36.23136719 86.13861328 -36.3515625 87.3203125 C-36.50359131 88.85582764 -36.50359131 88.85582764 -36.65869141 90.42236328 C-37 93 -37 93 -38 96 C-47.57 96 -57.14 96 -67 96 C-66.40378681 85.51355521 -65.57078421 75.11694802 -64.40625 64.67578125 C-64.25275235 63.2725178 -64.09964458 61.86921165 -63.94689941 60.46586609 C-63.54925118 56.81942927 -63.14762434 53.17344396 -62.74468994 49.52758789 C-62.0994255 43.68624664 -61.45879918 37.84440216 -60.82121277 32.00221825 C-60.60102355 29.99217924 -60.37801349 27.98244986 -60.15490723 25.97273254 C-59.94964417 24.09964668 -59.94964417 24.09964668 -59.74023438 22.1887207 C-59.62111694 21.11112991 -59.50199951 20.03353912 -59.37927246 18.92329407 C-58.83466724 13.28975442 -58.43408703 7.64313143 -58 2 C-49.09 2 -40.18 2 -31 2 C-31 6.29 -31 10.58 -31 15 C-29.659375 13.4325 -28.31875 11.865 -26.9375 10.25 C-18.76171944 1.17578202 -11.84794479 -0.20705146 0 0 Z " fill="#FFFFFF" transform="translate(969,39)"/>
<path d="M0 0 C-1.36893204 25.36893204 -1.36893204 25.36893204 -3 27 C-5.04208321 26.99408092 -7.08409923 26.94473465 -9.125 26.875 C-16.227042 26.83614857 -19.89828491 27.76387982 -25.6875 31.9375 C-33.53648654 42.33210379 -33.42654662 56.97863348 -34.6875 69.4375 C-35.00396343 72.44426409 -35.32416349 75.45060366 -35.64595032 78.45680237 C-35.84356335 80.31506087 -36.03742528 82.17372331 -36.22697449 84.03282166 C-36.31409195 84.87462479 -36.40120941 85.71642792 -36.4909668 86.58374023 C-36.56550583 87.31809799 -36.64004486 88.05245575 -36.71684265 88.80906677 C-37.02892704 91.22382334 -37.52248858 93.61244292 -38 96 C-47.57 96 -57.14 96 -67 96 C-67 90.2146194 -66.90685034 85.03083097 -66.28149414 79.35986328 C-66.20507187 78.65445404 -66.1286496 77.9490448 -66.0499115 77.22225952 C-65.79951205 74.92109013 -65.54235464 72.62073098 -65.28515625 70.3203125 C-65.10773823 68.70047869 -64.93078012 67.08059444 -64.7542572 65.46066284 C-64.29030671 61.21317296 -63.82074917 56.96632253 -63.34979248 52.71960449 C-62.68885446 46.75052114 -62.03555817 40.78059588 -61.38145447 34.8107605 C-61.03397816 31.63957655 -60.68439406 28.46863673 -60.33302307 25.29788208 C-60.17130505 23.83156447 -60.00959699 22.36524576 -59.84790039 20.89892578 C-59.70800186 19.6358963 -59.56810333 18.37286682 -59.42396545 17.07156372 C-58.90133554 12.05247314 -58.45686397 7.02550372 -58 2 C-49.09 2 -40.18 2 -31 2 C-31 6.29 -31 10.58 -31 15 C-29.96875 13.5975 -28.9375 12.195 -27.875 10.75 C-20.22976108 0.97084901 -11.85468756 -0.38586686 0 0 Z " fill="#FFFFFF" transform="translate(433,39)"/>
<path d="M0 0 C3.96 0 7.92 0 12 0 C13.48405416 2.96810831 13.59539368 6.12688501 13.97265625 9.38671875 C14.1037101 10.48956963 14.1037101 10.48956963 14.2374115 11.61470032 C14.42161648 13.17382224 14.60390148 14.73317201 14.78442383 16.29272461 C15.05946578 18.66136945 15.34276656 21.02892145 15.62695312 23.39648438 C15.80519058 24.9140035 15.98294023 26.43158001 16.16015625 27.94921875 C16.24451431 28.65052414 16.32887238 29.35182953 16.41578674 30.0743866 C16.91186831 34.42308769 17.07648204 38.63340933 17 43 C13.7 43 10.4 43 7 43 C6.67 39.37 6.34 35.74 6 32 C0.3668971 31.8290816 0.3668971 31.8290816 -5 33 C-7.4629475 36.06303005 -8.7794063 39.28427 -10 43 C-13.3 43 -16.6 43 -20 43 C-19.3775398 38.28610721 -17.39033876 34.39592608 -15.25390625 30.21484375 C-14.88273178 29.47673965 -14.51155731 28.73863556 -14.12913513 27.97816467 C-12.94588221 25.62838825 -11.75435061 23.28292526 -10.5625 20.9375 C-9.76442047 19.35639905 -8.96688852 17.77502157 -8.16992188 16.19335938 C-6.70724245 13.29246133 -5.24150104 10.39316019 -3.77172852 7.49584961 C-2.50725692 5.00088353 -1.25089921 2.50179842 0 0 Z M3 12 C2.32645501 13.43429001 1.66140299 14.87257057 1 16.3125 C0.62875 17.11300781 0.2575 17.91351563 -0.125 18.73828125 C-1.18040667 21.06213959 -1.18040667 21.06213959 -1 24 C1.31 24 3.62 24 6 24 C5.67 20.04 5.34 16.08 5 12 C4.34 12 3.68 12 3 12 Z " fill="#FFFFFF" transform="translate(1324,90)"/>
<path d="M0 0 C-0.66 2.31 -1.32 4.62 -2 7 C-4.69998937 7.93461171 -6.13335549 7.97499585 -9 7.4375 C-12.22874882 6.9666408 -13.3275479 7.25262747 -16 9 C-16 10.32 -16 11.64 -16 13 C-14.948125 13.37125 -14.948125 13.37125 -13.875 13.75 C-9.28954653 15.74367542 -5.79341309 17.80988036 -3 22 C-2.27246601 26.91508428 -2.49564069 30.93308607 -4.625 35.4375 C-8.11605318 39.20416265 -11.34594904 40.82696655 -16.47265625 41.36328125 C-17.65730469 41.34652344 -18.84195312 41.32976562 -20.0625 41.3125 C-21.24972656 41.30863281 -22.43695312 41.30476563 -23.66015625 41.30078125 C-26.85604527 41.01296434 -29.11988582 40.36655701 -32 39 C-31.38461538 33.46153846 -31.38461538 33.46153846 -29.4375 31.125 C-28.963125 30.75375 -28.48875 30.3825 -28 30 C-26.7315625 30.5259375 -26.7315625 30.5259375 -25.4375 31.0625 C-21.54982467 32.12277509 -18.91574361 31.78314872 -15 31 C-14.67 29.68 -14.34 28.36 -14 27 C-14.77085938 26.45730469 -15.54171875 25.91460937 -16.3359375 25.35546875 C-17.33882812 24.64003906 -18.34171875 23.92460938 -19.375 23.1875 C-20.37273437 22.47980469 -21.37046875 21.77210937 -22.3984375 21.04296875 C-25.06920561 18.94565386 -26.77200157 17.39185088 -27.3359375 13.94921875 C-27.43032885 8.4839595 -26.87647454 5.17466489 -23 1 C-16.43831639 -3.10105226 -6.80919295 -4.07901535 0 0 Z " fill="#FFFFFF" transform="translate(1290,92)"/>
<path d="M0 0 C1.670625 0.37125 1.670625 0.37125 3.375 0.75 C4.77435013 3.54870027 4.62765405 5.65498792 4.375 8.75 C3.3125 10.625 3.3125 10.625 1.375 11.75 C-2.1875 12.125 -2.1875 12.125 -5.625 11.75 C-7.625 8.75 -7.625 8.75 -7.4375 5.1875 C-6.28914783 0.32908696 -4.91881748 -0.33922879 0 0 Z " fill="#FFFFFF" transform="translate(1297.625,121.25)"/>
<path d="M0 0 C2 2 2 2 2.265625 3.875 C2.26046875 4.57625 2.2553125 5.2775 2.25 6 C2.25515625 6.70125 2.2603125 7.4025 2.265625 8.125 C2 10 2 10 0 12 C-3.5 12.25 -3.5 12.25 -7 12 C-9 10 -9 10 -9.3125 6.5625 C-9 3 -9 3 -7.875 1.0625 C-5.15050101 -0.48138276 -3.07108055 -0.3267107 0 0 Z " fill="#FFFFFF" transform="translate(1354,121)"/>
</svg>
