<?xml version="1.0" standalone="no"?>
<!DOCTYPE svg PUBLIC "-//W3C//DTD SVG 20010904//EN"
 "http://www.w3.org/TR/2001/REC-SVG-20010904/DTD/svg10.dtd">
<svg version="1.0" xmlns="http://www.w3.org/2000/svg"
 width="512.000000pt" height="512.000000pt" viewBox="0 0 512.000000 512.000000"
 preserveAspectRatio="xMidYMid meet">

<g transform="translate(0.000000,512.000000) scale(0.100000,-0.100000)"
fill="#000000" stroke="none">
<path d="M1485 4755 c-675 -170 -813 -207 -827 -225 -17 -21 -18 -125 -18
-1970 0 -1844 1 -1949 18 -1970 14 -18 153 -55 832 -225 448 -113 825 -205
838 -205 13 0 34 11 47 25 25 24 25 27 25 200 l0 175 295 0 296 0 24 25 25 24
0 671 0 671 -25 24 c-32 33 -78 33 -110 0 l-25 -24 0 -616 0 -615 -240 0 -240
0 0 1840 0 1840 240 0 240 0 0 -615 0 -616 25 -24 c15 -16 36 -25 55 -25 19 0
40 9 55 25 l25 24 0 671 0 671 -25 24 -24 25 -296 0 -295 0 0 175 c0 173 0
176 -25 200 -15 16 -35 25 -52 24 -15 0 -392 -92 -838 -204z m570 -1900 l25
-24 0 -271 0 -271 -25 -24 c-15 -16 -36 -25 -55 -25 -19 0 -40 9 -55 25 l-25
24 0 271 0 271 25 24 c15 16 36 25 55 25 19 0 40 -9 55 -25z"/>
<path d="M3564 3348 c-38 -18 -44 -51 -44 -223 l0 -165 -445 0 c-309 0 -452
-3 -469 -11 -45 -21 -47 -43 -44 -408 l3 -343 24 -19 c22 -18 45 -19 477 -19
l454 0 0 -167 c0 -115 4 -176 13 -193 16 -31 58 -47 92 -34 39 14 844 744 851
771 4 12 4 33 0 46 -4 18 -561 530 -798 735 -50 42 -75 49 -114 30z"/>
</g>
</svg>
